<?xml version="1.0" ?>
<!-- Uploaded to: SVG Repo, www.svgrepo.com, Generator: SVG Repo Mixer Tools -->
<svg fill="#000000" width="800px" height="800px" viewBox="0 0 64 64" id="Layer_1_1_" version="1.1" xml:space="preserve" xmlns="http://www.w3.org/2000/svg" xmlns:xlink="http://www.w3.org/1999/xlink">
<g>
<path d="M58,15h-1V9H44.63C42.377,4.278,37.571,1,32,1S21.623,4.278,19.37,9H7v6H6c-2.757,0-5,2.243-5,5v32c0,2.757,2.243,5,5,5h13   v4h-4v2h34v-2h-4v-4h13c2.757,0,5-2.243,5-5V20C63,17.243,60.757,15,58,15z M9,33h46v10H9V33z M43.605,12h-3.127   c-1.332,0-2.583-0.519-3.524-1.46l-0.494-0.494C35.142,8.727,33.388,8,31.521,8c-1.809,0-3.479-0.982-4.357-2.563   c-0.214-0.385-0.333-0.805-0.363-1.235C28.377,3.44,30.136,3,32,3C37.58,3,42.268,6.833,43.605,12z M24.976,5.291   c0.105,0.385,0.242,0.761,0.44,1.117C26.647,8.624,28.986,10,31.521,10c1.332,0,2.583,0.519,3.524,1.46l0.494,0.494   C36.858,13.273,38.612,14,40.479,14h3.471C43.977,14.331,44,14.662,44,15c0,0.717-0.075,1.415-0.196,2.098   C42.558,16.385,41.142,16,39.692,16c-2.047,0-3.861,1.228-4.621,3.129C34.617,20.266,33.532,21,32.308,21h-1   c-1.782,0-3.438,0.961-4.321,2.508l-0.871,1.524c-0.059,0.103-0.105,0.212-0.161,0.317c-0.571-0.335-1.118-0.708-1.624-1.13   l0.756-1.701C26.036,20.381,28.161,19,30.5,19c1.93,0,3.5-1.57,3.5-3.5S32.43,12,30.5,12h-1.315c-1.731,0-3.371-0.754-4.498-2.069   l-1.976-2.304c-0.027-0.032-0.06-0.063-0.088-0.095C23.302,6.682,24.095,5.931,24.976,5.291z M43.251,19.134   C41.561,23.717,37.163,27,32,27c-1.495,0-2.922-0.287-4.243-0.789c0.034-0.062,0.06-0.127,0.095-0.188l0.87-1.523   c0.528-0.925,1.52-1.5,2.585-1.5h1c2.047,0,3.861-1.228,4.621-3.129C37.383,18.734,38.468,18,39.692,18   C40.97,18,42.203,18.412,43.251,19.134z M21.47,9.252l1.698,1.981C24.676,12.991,26.868,14,29.185,14H30.5   c0.827,0,1.5,0.673,1.5,1.5S31.327,17,30.5,17c-3.128,0-5.971,1.847-7.242,4.707l-0.444,0.999C21.061,20.619,20,17.932,20,15   C20,12.919,20.534,10.96,21.47,9.252z M18.59,11C18.21,12.269,18,13.61,18,15c0,7.72,6.28,14,14,14s14-6.28,14-14   c0-1.39-0.21-2.731-0.59-4H55v20H9V11H18.59z M6,17h1v28h50V17h1c1.654,0,3,1.346,3,3v27H3V20C3,18.346,4.346,17,6,17z M43,61H21   v-4h22V61z M58,55H6c-1.654,0-3-1.346-3-3v-3h58v3C61,53.654,59.654,55,58,55z"/>
<rect height="2" width="2" x="26" y="51"/>
<rect height="2" width="4" x="30" y="51"/>
<rect height="2" width="2" x="36" y="51"/>
<polygon points="17,35 15,35 15,37 11,37 11,39 15,39 15,41 17,41 17,39 53,39 53,37 17,37  "/>
<rect height="2" width="2" x="51" y="13"/>
<rect height="2" width="2" x="11" y="13"/>
</g>
</svg>